<svg width="49" height="49" viewBox="0 0 49 49" fill="none" xmlns="http://www.w3.org/2000/svg">
<circle cx="24.5" cy="24.5" r="24.5" fill="#F9F9F9"/>
<path d="M30.1158 18.6956V16.5579C30.1158 15.8918 29.9846 15.2322 29.7297 14.6168C29.4748 14.0014 29.1011 13.4422 28.6301 12.9712C28.1591 12.5002 27.5999 12.1265 26.9845 11.8716C26.3691 11.6167 25.7095 11.4855 25.0434 11.4855C24.3773 11.4855 23.7177 11.6167 23.1022 11.8716C22.4868 12.1265 21.9276 12.5002 21.4566 12.9712C20.9856 13.4422 20.612 14.0014 20.3571 14.6168C20.1022 15.2322 19.971 15.8918 19.971 16.5579V21.6304C19.971 21.8225 20.0473 22.0069 20.1832 22.1427C20.3191 22.2786 20.5034 22.355 20.6956 22.355C20.8878 22.355 21.0721 22.2786 21.208 22.1427C21.3439 22.0069 21.4202 21.8225 21.4202 21.6304V20.1449H27.2173V18.6956H21.4202V16.5579C21.4202 15.597 21.8019 14.6754 22.4814 13.996C23.1609 13.3165 24.0825 12.9348 25.0434 12.9348C26.0043 12.9348 26.9259 13.3165 27.6053 13.996C28.2848 14.6754 28.6665 15.597 28.6665 16.5579V21.5941C28.6665 21.7863 28.7429 21.9706 28.8788 22.1065C29.0147 22.2424 29.199 22.3188 29.3912 22.3188C29.5833 22.3188 29.7677 22.2424 29.9036 22.1065C30.0395 21.9706 30.1158 21.7863 30.1158 21.5941V20.1449H33.739V33.1882H16.3478V20.1449H18.5217V18.6956H14.8985V33.2534C14.8985 33.6205 15.0443 33.9726 15.3039 34.2321C15.5635 34.4917 15.9155 34.6375 16.2826 34.6375H33.8042C34.1712 34.6375 34.5233 34.4917 34.7828 34.2321C35.0424 33.9726 35.1882 33.6205 35.1882 33.2534V18.6956H30.1158Z" fill="#292D32"/>
</svg>
