<svg width="26" height="39" viewBox="0 0 26 39" fill="none" xmlns="http://www.w3.org/2000/svg">
<path fill-rule="evenodd" clip-rule="evenodd" d="M23.9482 12.5104V26.0104C23.9482 31.8094 19.2472 36.5104 13.4482 36.5104C7.64919 36.5104 2.94818 31.8094 2.94818 26.0104V12.5104C2.94818 6.71139 7.64919 2.01038 13.4482 2.01038C19.2472 2.01038 23.9482 6.71139 23.9482 12.5104ZM0.948181 12.5104C0.948181 5.60682 6.54462 0.0103836 13.4482 0.0103836C20.3517 0.0103836 25.9482 5.60682 25.9482 12.5104V26.0104C25.9482 32.9139 20.3517 38.5104 13.4482 38.5104C6.54462 38.5104 0.948181 32.9139 0.948181 26.0104V12.5104ZM12.4482 20.0104V29.0104L14.4482 29.0104V20.0104H12.4482Z" fill="#33A9FF"/>
</svg>
